# xmcd
#
# Track frame offsets:
#	150
#	8827
#	22419
#	33030
#	46330
#	60637
#	71937
#	81745
#	92610
#	102372
#	116130
#	128505
#	140662
#	151320
#
# Disc length: 2333
#
# Revision: 4
# Processed by: cddbd v1.5.1PL0 Copyright (c) Steve Scherf et al.
# Submitted via: Grip 2.6
# Normalized: r3:DSETVAR1
#
DISCID=c2091b0e
DTITLE=Various Artist - Groovin Soul [CD 2)
DYEAR=1900
DGENRE=
TTITLE0=Sam Cooke - Only sixteen
TTITLE1=Ben E. King - Stand by me
TTITLE2=Sam and Dave - Sweet soul music
TTITLE3=Percy Sledge - Take time to know her
TTITLE4=Aaron Neville - Tell it like it is
TTITLE5=Mary Wells - The one who really loves you
TTITLE6=James Brown - Papa's got a brand new bag
TTITLE7=Lee Dorsey - Ya ya
TTITLE8=Wilson Pickett - Baby don't weep
TTITLE9=Harold Melvin and the Bluenotes - Satisfaction Guaranteed
TTITLE10=Archie Bell and the Drells - Tighten up
TTITLE11=King Curtis - Soul twist
TTITLE12=Joe Tex - She's mine
TTITLE13=Solomon Burke - Sidewalks, fences and walls
EXTD=
EXTT0=
EXTT1=
EXTT2=
EXTT3=
EXTT4=
EXTT5=
EXTT6=
EXTT7=
EXTT8=
EXTT9=
EXTT10=
EXTT11=
EXTT12=
EXTT13=
PLAYORDER=
